<svg preserveAspectRatio="none" width="100%" height="100%" overflow="visible" style="display: block;" viewBox="0 0 7.95 8.75" fill="none" xmlns="http://www.w3.org/2000/svg">
<path id="Icon" d="M3.975 8.375L3.8227 8.71768C3.91966 8.76077 4.03034 8.76077 4.1273 8.71768L3.975 8.375ZM5.375 3.975H5C5 4.54109 4.54109 5 3.975 5V5.375V5.75C4.95531 5.75 5.75 4.95531 5.75 3.975H5.375ZM3.975 5.375V5C3.40891 5 2.95 4.54109 2.95 3.975H2.575H2.2C2.2 4.95531 2.99469 5.75 3.975 5.75V5.375ZM2.575 3.975H2.95C2.95 3.40891 3.40891 2.95 3.975 2.95V2.575V2.2C2.99469 2.2 2.2 2.99469 2.2 3.975H2.575ZM3.975 2.575V2.95C4.54109 2.95 5 3.40891 5 3.975H5.375H5.75C5.75 2.99469 4.95531 2.2 3.975 2.2V2.575ZM7.575 3.975H7.2C7.2 5.20712 6.40538 6.21154 5.53493 6.93692C5.10601 7.29435 4.67519 7.56981 4.3508 7.75603C4.18903 7.8489 4.05481 7.91896 3.96198 7.96537C3.9156 7.98856 3.87963 8.00581 3.85582 8.01701C3.84391 8.02261 3.83506 8.0267 3.82946 8.02925C3.82666 8.03053 3.82468 8.03143 3.82355 8.03194C3.82298 8.03219 3.82262 8.03235 3.82248 8.03242C3.82241 8.03245 3.82239 8.03246 3.82243 8.03244C3.82244 8.03243 3.82251 8.0324 3.82252 8.0324C3.8226 8.03236 3.8227 8.03232 3.975 8.375C4.1273 8.71768 4.12742 8.71762 4.12756 8.71756C4.12762 8.71754 4.12778 8.71747 4.1279 8.71741C4.12816 8.7173 4.12847 8.71716 4.12883 8.717C4.12956 8.71667 4.13051 8.71624 4.13167 8.71572C4.134 8.71467 4.13718 8.71323 4.14119 8.7114C4.14922 8.70773 4.16058 8.70249 4.17504 8.69568C4.20397 8.68208 4.24534 8.66222 4.29739 8.63619C4.40144 8.58417 4.54847 8.50735 4.7242 8.40647C5.07481 8.20519 5.54399 7.90565 6.01507 7.51308C6.94462 6.73846 7.95 5.54288 7.95 3.975H7.575ZM3.975 8.375C4.1273 8.03232 4.1274 8.03236 4.12748 8.0324C4.12749 8.0324 4.12756 8.03243 4.12757 8.03244C4.12761 8.03246 4.12759 8.03245 4.12752 8.03242C4.12738 8.03235 4.12702 8.03219 4.12645 8.03194C4.12532 8.03143 4.12334 8.03053 4.12054 8.02925C4.11495 8.0267 4.10609 8.02261 4.09418 8.01701C4.07037 8.00581 4.0344 7.98856 3.98802 7.96537C3.89519 7.91896 3.76097 7.8489 3.5992 7.75603C3.27481 7.56981 2.84399 7.29435 2.41507 6.93692C1.54462 6.21154 0.75 5.20712 0.75 3.975H0.375H0C0 5.54288 1.00538 6.73846 1.93493 7.51308C2.40601 7.90565 2.87519 8.20519 3.2258 8.40647C3.40153 8.50735 3.54856 8.58417 3.65261 8.63619C3.70466 8.66222 3.74604 8.68208 3.77496 8.69568C3.78942 8.70249 3.80078 8.70773 3.80881 8.7114C3.81282 8.71323 3.816 8.71467 3.81833 8.71572C3.81949 8.71624 3.82044 8.71667 3.82117 8.717C3.82153 8.71716 3.82184 8.7173 3.8221 8.71741C3.82223 8.71747 3.82238 8.71754 3.82244 8.71756C3.82258 8.71762 3.8227 8.71768 3.975 8.375ZM0.375 3.975H0.75C0.75 2.19388 2.19388 0.75 3.975 0.75V0.375V0C1.77967 0 0 1.77967 0 3.975H0.375ZM3.975 0.375V0.75C5.75612 0.75 7.2 2.19388 7.2 3.975H7.575H7.95C7.95 1.77967 6.17033 0 3.975 0V0.375Z" fill="var(--stroke-0, #47566A)"/>
</svg>
