<svg preserveAspectRatio="none" width="100%" height="100%" overflow="visible" style="display: block;" viewBox="0 0 8.75 8.35" fill="none" xmlns="http://www.w3.org/2000/svg">
<path id="Icon" d="M2.175 6.2C1.96789 6.2 1.8 6.36789 1.8 6.575C1.8 6.78211 1.96789 6.95 2.175 6.95V6.575V6.2ZM3.775 6.95C3.98211 6.95 4.15 6.78211 4.15 6.575C4.15 6.36789 3.98211 6.2 3.775 6.2V6.575V6.95ZM3.15 2.775C3.15 2.56789 2.98211 2.4 2.775 2.4C2.56789 2.4 2.4 2.56789 2.4 2.775H2.775H3.15ZM0.375 2.775L0.0494088 2.58895C0.0170307 2.64561 0 2.70974 0 2.775H0.375ZM8.375 2.775H8.75C8.75 2.70974 8.73297 2.64561 8.70059 2.58895L8.375 2.775ZM6.35 2.775C6.35 2.56789 6.18211 2.4 5.975 2.4C5.76789 2.4 5.6 2.56789 5.6 2.775H5.975H6.35ZM7.575 1.375H7.2C7.2 1.44026 7.21703 1.50439 7.24941 1.56105L7.575 1.375ZM1.175 1.375L1.50059 1.56105C1.53297 1.50439 1.55 1.44026 1.55 1.375H1.175ZM0.975 3.775H0.6V7.175H0.975H1.35V3.775H0.975ZM1.775 7.975V8.35H6.975V7.975V7.6H1.775V7.975ZM7.775 7.175H8.15V3.775H7.775H7.4V7.175H7.775ZM6.975 7.975V8.35C7.62393 8.35 8.15 7.82393 8.15 7.175H7.775H7.4C7.4 7.40972 7.20972 7.6 6.975 7.6V7.975ZM0.975 7.175H0.6C0.6 7.82393 1.12607 8.35 1.775 8.35V7.975V7.6C1.54028 7.6 1.35 7.40972 1.35 7.175H0.975ZM2.175 6.575V6.95H3.775V6.575V6.2H2.175V6.575ZM2.775 2.775H2.4C2.4 3.23064 2.03064 3.6 1.575 3.6V3.975V4.35C2.44485 4.35 3.15 3.64485 3.15 2.775H2.775ZM1.575 3.975V3.6C1.11937 3.6 0.75 3.23064 0.75 2.775H0.375H0C0 3.64485 0.705151 4.35 1.575 4.35V3.975ZM8.375 2.775H8C8 3.23064 7.63064 3.6 7.175 3.6V3.975V4.35C8.04485 4.35 8.75 3.64485 8.75 2.775H8.375ZM7.175 3.975V3.6C6.71937 3.6 6.35 3.23064 6.35 2.775H5.975H5.6C5.6 3.64485 6.30515 4.35 7.175 4.35V3.975ZM8.375 2.775L8.70059 2.58895L7.90059 1.18895L7.575 1.375L7.24941 1.56105L8.04941 2.96105L8.375 2.775ZM7.575 1.375H7.95V0.775H7.575H7.2V1.375H7.575ZM7.175 0.375V0H1.575V0.375V0.75H7.175V0.375ZM1.175 0.775H0.8V1.375H1.175H1.55V0.775H1.175ZM1.175 1.375L0.849409 1.18895L0.0494088 2.58895L0.375 2.775L0.700591 2.96105L1.50059 1.56105L1.175 1.375ZM5.975 2.775H5.6C5.6 3.01989 5.47659 3.21301 5.24979 3.36085C5.01429 3.51437 4.68853 3.6 4.375 3.6V3.975V4.35C4.80701 4.35 5.28125 4.23563 5.65936 3.98915C6.04618 3.73699 6.35 3.33011 6.35 2.775H5.975ZM4.375 3.975V3.6C4.06147 3.6 3.73571 3.51437 3.50021 3.36085C3.27341 3.21301 3.15 3.01989 3.15 2.775H2.775H2.4C2.4 3.33011 2.70382 3.73699 3.09064 3.98915C3.46875 4.23563 3.94299 4.35 4.375 4.35V3.975ZM1.575 0.375V0C1.14698 0 0.8 0.346979 0.8 0.775H1.175H1.55C1.55 0.761193 1.56119 0.75 1.575 0.75V0.375ZM7.575 0.775H7.95C7.95 0.346979 7.60302 0 7.175 0V0.375V0.75C7.18881 0.75 7.2 0.761193 7.2 0.775H7.575Z" fill="var(--stroke-0, #47566A)"/>
</svg>
