<svg preserveAspectRatio="none" width="100%" height="100%" overflow="visible" style="display: block;" viewBox="0 0 34.4401 7.52613" fill="none" xmlns="http://www.w3.org/2000/svg">
<g id="Group 210439">
<path id="Vector" d="M10.416 2.12985C9.69421 2.12985 9.1099 2.40482 8.80056 2.95476L8.73182 2.3017H7.70068V7.38865H8.93805V4.53583C8.93805 3.81404 9.28176 3.22973 10.1067 3.22973C10.8972 3.22973 11.2065 3.81404 11.2065 4.53583V7.38865H12.4439V4.19212C12.4095 3.0235 11.7565 2.12985 10.416 2.12985Z" fill="var(--fill-0, #000041)"/>
<path id="Vector_2" d="M3.06 4.32961C3.23185 3.71093 3.71305 3.2641 4.50359 3.2641C5.25976 3.2641 5.74095 3.7453 5.84407 4.32961H3.06ZM4.53796 2.12985C2.92251 2.12985 1.82263 3.33284 1.82263 4.8108C1.82263 6.22003 2.8194 7.52613 4.57233 7.52613C5.74095 7.52613 6.63461 6.94182 7.01269 6.0138L5.87844 5.63571C5.67221 6.11691 5.19101 6.39188 4.57233 6.39188C3.67868 6.39188 3.19748 5.84194 3.06 5.18889H7.08143C7.21892 3.40158 6.18778 2.12985 4.53796 2.12985Z" fill="var(--fill-0, #000041)"/>
<path id="Vector_3" d="M0.653053 0H0V7.38982H1.23736V0.618682C1.27174 0.240599 0.996765 0 0.653053 0Z" fill="var(--fill-0, #000041)"/>
<path id="Vector_4" d="M22.7865 2.2685H21.3085L19.2806 4.36515V0.584311C19.2806 0.27497 19.0057 0 18.7307 0H18.0776V7.35544H19.315V5.87748L20.0368 5.15568L21.4804 7.35544H22.924L20.8961 4.2964L22.7865 2.2685Z" fill="var(--fill-0, #000041)"/>
<path id="Vector_5" d="M29.7352 3.05946L29.6665 2.3033H28.6353V7.39024H29.8727V4.91551C29.8727 3.88437 30.2508 3.47192 31.11 3.47192H31.3163V2.20018C30.5257 2.20018 29.9758 2.50953 29.7352 3.05946Z" fill="var(--fill-0, #000041)"/>
<path id="Vector_6" d="M34.4401 3.36941V2.26953H33.0309V0.688454H31.7935V5.32857C31.7935 6.66905 32.3091 7.35647 33.7527 7.35647H34.4057V6.22222H33.7527C33.2715 6.22222 32.9965 5.98162 32.9965 5.46606V3.36941H34.4401Z" fill="var(--fill-0, #000041)"/>
<path id="Vector_7" d="M25.2327 6.42625C24.339 6.42625 23.7203 5.7732 23.7203 4.84518C23.7203 3.88278 24.339 3.2641 25.2327 3.2641C26.092 3.2641 26.7106 3.88278 26.7106 4.84518C26.7106 5.7732 26.092 6.42625 25.2327 6.42625ZM26.7794 2.98913C26.4013 2.40482 25.817 2.12985 25.0608 2.12985C23.5485 2.12985 22.483 3.19536 22.483 4.8108C22.483 6.42625 23.5485 7.52613 25.0608 7.52613C25.7482 7.52613 26.2982 7.28553 26.6419 6.83871V7.35428H27.8793V2.3017H26.8481L26.7794 2.98913Z" fill="var(--fill-0, #000041)"/>
<path id="Vector_8" d="M16.018 4.36615L15.0556 4.22866C14.4713 4.12555 14.2651 3.98806 14.2651 3.71309C14.2651 3.43812 14.5057 3.19752 15.09 3.19752C15.8461 3.19752 16.2242 3.57561 16.4648 3.95369L17.3585 3.26627C17.0148 2.64758 16.3617 2.09764 15.2618 2.09764C13.9213 2.09764 13.0964 2.78507 13.0964 3.71309C13.0964 4.50363 13.5776 5.05357 14.6088 5.19106L15.5368 5.32854C16.2242 5.43165 16.3273 5.63788 16.3273 5.87848C16.3273 6.18782 15.9836 6.42842 15.468 6.42842C14.7806 6.42842 14.1963 6.11908 13.8182 5.46603L12.8558 6.15345C13.4058 7.08147 14.2994 7.49393 15.3993 7.49393C16.8085 7.49393 17.5303 6.73776 17.5303 5.77537C17.496 5.05357 17.1179 4.538 16.018 4.36615Z" fill="var(--fill-0, #000041)"/>
</g>
</svg>
