<svg preserveAspectRatio="none" width="100%" height="100%" overflow="visible" style="display: block;" viewBox="0 0 34.4387 14.6643" fill="none" xmlns="http://www.w3.org/2000/svg">
<g id="Group 210438">
<path id="Vector" d="M9.09521 12.8087C12.0813 12.7423 14.4702 10.6852 14.603 7.50001C14.8684 8.82718 15.4656 10.0216 16.1292 11.017C14.3375 12.4105 12.6122 13.0078 10.8869 13.0078C10.2233 13.0078 9.69244 12.9414 9.09521 12.8087Z" fill="var(--fill-0, #000041)"/>
<path id="Vector_2" d="M34.4387 7.23156C34.4387 7.497 34.2396 7.76243 33.9741 7.76243H33.3106V7.29792C33.4433 5.5726 33.0451 4.37815 32.3152 3.31642L33.9741 3.78093C34.3059 3.91364 34.4387 4.04636 34.4387 4.51087V7.23156Z" fill="var(--fill-0, #000041)"/>
<path id="Vector_3" d="M0 4.58011C0 4.1156 0.0663584 3.91653 0.464509 3.85017L2.18983 3.3193C1.39353 4.44739 0.995376 5.97364 1.06173 7.30081V7.76531H0.464509C0.199075 7.76531 0 7.56624 0 7.23445V4.58011Z" fill="var(--fill-0, #000041)"/>
<path id="Vector_4" d="M6.04211 3.18434C6.97113 2.05624 8.23194 1.45902 9.8909 1.45902C12.9434 1.45902 15.3323 3.31705 16.5267 6.36954L17.124 7.96214C18.6502 11.9436 20.5746 13.9344 22.8972 14.6643C19.3138 14.1335 16.5267 12.01 15.3323 8.49301L14.8014 6.90041C13.6733 3.64885 11.8817 2.1226 9.0946 2.1226C7.96651 2.1226 6.83842 2.52075 6.04211 3.18434Z" fill="var(--fill-0, #000041)"/>
<path id="Vector_5" d="M26.8076 0.39846C30.3909 0.862969 32.9125 3.58366 32.9125 6.76887C32.9125 9.55592 30.7891 11.8785 27.9356 12.0775C29.86 10.8831 30.59 9.29049 30.59 7.16702C30.59 4.04817 29.1301 1.32748 26.8076 0.39846Z" fill="var(--fill-0, #000041)"/>
<path id="Vector_6" d="M20.8391 0.19923C19.4456 0.730097 18.3175 1.59276 17.2558 2.72085C15.8622 1.32732 14.9996 0.796456 13.407 0.265589L20.8391 0.19923Z" fill="var(--fill-0, #000041)"/>
<path id="Vector_7" d="M17.5201 3.05249C19.3781 1.06173 21.767 0 23.8241 0C26.4121 0 28.9337 1.65896 29.7964 4.64509C28.6019 2.65434 26.6112 2.05711 25.2177 2.05711C22.3642 2.05711 19.8426 4.44601 19.8426 7.43214C19.179 5.24231 18.25 3.71607 17.5201 3.05249Z" fill="var(--fill-0, #000041)"/>
<path id="Vector_8" d="M1.5304 7.29942C1.5304 2.98613 4.84832 0 9.69248 0C14.1385 0 17.5891 2.3889 19.1154 6.50312L19.5799 7.76393C20.8407 11.2146 22.8978 12.8072 25.8839 12.8072C28.1401 12.8072 30.7281 12.0772 32.0553 10.4846C30.9272 13.0726 28.4055 14.5325 25.3531 14.5325C21.8361 14.5325 19.3144 12.2099 17.7882 8.22844L17.1246 6.43676C15.6647 2.98613 13.2095 0.995376 9.95791 0.995376C6.3082 0.995376 3.78658 3.58335 3.78658 7.23307C3.78658 10.9491 6.50728 13.4708 10.6215 13.4708C11.9487 13.4708 13.1431 13.2053 14.2712 12.6745C12.944 13.9353 11.086 14.5988 9.02889 14.5988C4.7156 14.5988 1.5304 11.48 1.5304 7.29942Z" fill="var(--fill-0, #000041)"/>
</g>
</svg>
